<svg width="631" height="667" viewBox="0 0 631 667" fill="none" xmlns="http://www.w3.org/2000/svg">
<path d="M408.4 25.217C408.4 30.859 403.84 35.434 398.2 35.434C392.57 35.434 388 30.859 388 25.217C388 19.574 392.57 15 398.2 15C403.82 15 408.4 19.574 408.4 25.217Z" stroke="#04D361" stroke-width="3" stroke-miterlimit="10" stroke-linecap="round" stroke-linejoin="round"/>
<path d="M405.58 32.2649L412.78 39.4909" stroke="#04D361" stroke-width="3" stroke-miterlimit="10" stroke-linecap="round" stroke-linejoin="round"/>
<path d="M614.93 654.295L625.665 665.044" stroke="#04D361" stroke-width="3" stroke-miterlimit="10" stroke-linecap="round" stroke-linejoin="round"/>
<path d="M625.665 654.295L614.93 665.044" stroke="#04D361" stroke-width="3" stroke-miterlimit="10" stroke-linecap="round" stroke-linejoin="round"/>
<path d="M564.37 434.341C564.37 436.187 565.868 437.683 567.716 437.683C569.564 437.683 571.062 436.187 571.062 434.341C571.062 432.496 569.564 431 567.716 431C565.868 431 564.37 432.496 564.37 434.341Z" fill="#9871F5" fill-opacity="0.5"/>
<path d="M564.37 457.662C564.37 459.507 565.868 461.003 567.716 461.003C569.564 461.003 571.062 459.507 571.062 457.662C571.062 455.817 569.564 454.321 567.716 454.321C565.868 454.321 564.37 455.817 564.37 457.662Z" fill="#9871F5" fill-opacity="0.5"/>
<path d="M564.37 481.001C564.37 482.846 565.868 484.342 567.716 484.342C569.564 484.342 571.062 482.846 571.062 481.001C571.062 479.155 569.564 477.659 567.716 477.659C565.868 477.659 564.37 479.155 564.37 481.001Z" fill="#9871F5" fill-opacity="0.5"/>
<path d="M541 434.341C541 436.186 542.498 437.682 544.346 437.682C546.193 437.682 547.691 436.186 547.691 434.341C547.691 432.496 546.193 431 544.346 431C542.498 431 541 432.496 541 434.341Z" fill="#9871F5" fill-opacity="0.5"/>
<path d="M541 457.662C541 459.507 542.498 461.003 544.345 461.003C546.193 461.003 547.691 459.507 547.691 457.662C547.691 455.817 546.193 454.321 544.345 454.321C542.498 454.321 541 455.817 541 457.662Z" fill="#9871F5" fill-opacity="0.5"/>
<path d="M541 481.001C541 482.846 542.498 484.342 544.345 484.342C546.193 484.342 547.691 482.846 547.691 481.001C547.691 479.155 546.193 477.659 544.345 477.659C542.498 477.659 541 479.155 541 481.001Z" fill="#9871F5" fill-opacity="0.5"/>
<path d="M168.34 6.69101C170.18 6.69101 171.68 5.19401 171.68 3.34601C171.68 1.49801 170.18 0 168.34 0C166.49 0 165 1.49801 165 3.34601C165 5.19401 166.49 6.69101 168.34 6.69101Z" fill="#9871F5" fill-opacity="0.5"/>
<path d="M168.34 30.0621C170.18 30.0621 171.68 28.5641 171.68 26.7161C171.68 24.8691 170.18 23.3711 168.34 23.3711C166.49 23.3711 165 24.8691 165 26.7161C165 28.5641 166.49 30.0621 168.34 30.0621Z" fill="#9871F5" fill-opacity="0.5"/>
<path d="M168.34 53.4149C170.18 53.4149 171.68 51.9169 171.68 50.0689C171.68 48.2209 170.18 46.7229 168.34 46.7229C166.49 46.7229 165 48.2209 165 50.0689C165 51.9169 166.49 53.4149 168.34 53.4149Z" fill="#9871F5" fill-opacity="0.5"/>
<path d="M168.34 76.786C170.18 76.786 171.68 75.288 171.68 73.44C171.68 71.592 170.18 70.094 168.34 70.094C166.49 70.094 165 71.592 165 73.44C165 75.288 166.49 76.786 168.34 76.786Z" fill="#9871F5" fill-opacity="0.5"/>
<path d="M168.34 100.138C170.18 100.138 171.68 98.64 171.68 96.793C171.68 94.945 170.18 93.447 168.34 93.447C166.49 93.447 165 94.945 165 96.793C165 98.64 166.49 100.138 168.34 100.138Z" fill="#9871F5" fill-opacity="0.5"/>
<path d="M168.34 123.509C170.18 123.509 171.68 122.011 171.68 120.163C171.68 118.315 170.18 116.817 168.34 116.817C166.49 116.817 165 118.315 165 120.163C165 122.011 166.49 123.509 168.34 123.509Z" fill="#9871F5" fill-opacity="0.5"/>
<path d="M168.34 146.862C170.18 146.862 171.68 145.364 171.68 143.516C171.68 141.668 170.18 140.17 168.34 140.17C166.49 140.17 165 141.668 165 143.516C165 145.364 166.49 146.862 168.34 146.862Z" fill="#9871F5" fill-opacity="0.5"/>
<path d="M145 6.69101C146.85 6.69101 148.34 5.19401 148.34 3.34601C148.34 1.49801 146.85 0 145 0C143.16 0 141.66 1.49801 141.66 3.34601C141.66 5.19401 143.16 6.69101 145 6.69101Z" fill="#9871F5" fill-opacity="0.5"/>
<path d="M145 30.0621C146.85 30.0621 148.34 28.5641 148.34 26.7161C148.34 24.8691 146.85 23.3711 145 23.3711C143.16 23.3711 141.66 24.8691 141.66 26.7161C141.66 28.5641 143.16 30.0621 145 30.0621Z" fill="#9871F5" fill-opacity="0.5"/>
<path d="M145 53.4149C146.85 53.4149 148.34 51.9169 148.34 50.0689C148.34 48.2209 146.85 46.7229 145 46.7229C143.16 46.7229 141.66 48.2209 141.66 50.0689C141.66 51.9169 143.16 53.4149 145 53.4149Z" fill="#9871F5" fill-opacity="0.5"/>
<path d="M145 76.786C146.85 76.786 148.34 75.288 148.34 73.44C148.34 71.592 146.85 70.094 145 70.094C143.16 70.094 141.66 71.592 141.66 73.44C141.66 75.288 143.16 76.786 145 76.786Z" fill="#9871F5" fill-opacity="0.5"/>
<path d="M145 100.138C146.85 100.138 148.34 98.64 148.34 96.793C148.34 94.945 146.85 93.447 145 93.447C143.16 93.447 141.66 94.945 141.66 96.793C141.66 98.64 143.16 100.138 145 100.138Z" fill="#9871F5" fill-opacity="0.5"/>
<path d="M145 123.509C146.85 123.509 148.34 122.011 148.34 120.163C148.34 118.315 146.85 116.817 145 116.817C143.16 116.817 141.66 118.315 141.66 120.163C141.66 122.011 143.16 123.509 145 123.509Z" fill="#9871F5" fill-opacity="0.5"/>
<path d="M145 146.862C146.85 146.862 148.34 145.364 148.34 143.516C148.34 141.668 146.85 140.17 145 140.17C143.16 140.17 141.66 141.668 141.66 143.516C141.66 145.364 143.16 146.862 145 146.862Z" fill="#9871F5" fill-opacity="0.5"/>
<path d="M121.68 6.69101C123.52 6.69101 125.02 5.19401 125.02 3.34601C125.02 1.49801 123.52 0 121.68 0C119.83 0 118.34 1.49801 118.34 3.34601C118.34 5.19401 119.83 6.69101 121.68 6.69101Z" fill="#9871F5" fill-opacity="0.5"/>
<path d="M121.68 30.0621C123.52 30.0621 125.02 28.5641 125.02 26.7161C125.02 24.8691 123.52 23.3711 121.68 23.3711C119.83 23.3711 118.34 24.8691 118.34 26.7161C118.34 28.5641 119.83 30.0621 121.68 30.0621Z" fill="#9871F5" fill-opacity="0.5"/>
<path d="M121.68 53.4149C123.52 53.4149 125.02 51.9169 125.02 50.0689C125.02 48.2209 123.52 46.7229 121.68 46.7229C119.83 46.7229 118.34 48.2209 118.34 50.0689C118.34 51.9169 119.83 53.4149 121.68 53.4149Z" fill="#9871F5" fill-opacity="0.5"/>
<path d="M121.68 76.786C123.52 76.786 125.02 75.288 125.02 73.44C125.02 71.592 123.52 70.094 121.68 70.094C119.83 70.094 118.34 71.592 118.34 73.44C118.34 75.288 119.83 76.786 121.68 76.786Z" fill="#9871F5" fill-opacity="0.5"/>
<path d="M121.68 100.138C123.52 100.138 125.02 98.64 125.02 96.793C125.02 94.945 123.52 93.447 121.68 93.447C119.83 93.447 118.34 94.945 118.34 96.793C118.34 98.64 119.83 100.138 121.68 100.138Z" fill="#9871F5" fill-opacity="0.5"/>
<path d="M121.68 123.509C123.52 123.509 125.02 122.011 125.02 120.163C125.02 118.315 123.52 116.817 121.68 116.817C119.83 116.817 118.34 118.315 118.34 120.163C118.34 122.011 119.83 123.509 121.68 123.509Z" fill="#9871F5" fill-opacity="0.5"/>
<path d="M121.68 146.862C123.52 146.862 125.02 145.364 125.02 143.516C125.02 141.668 123.52 140.17 121.68 140.17C119.83 140.17 118.34 141.668 118.34 143.516C118.34 145.364 119.83 146.862 121.68 146.862Z" fill="#9871F5" fill-opacity="0.5"/>
<path d="M98.3401 6.69101C100.19 6.69101 101.68 5.19401 101.68 3.34601C101.68 1.49801 100.19 0 98.3401 0C96.5001 0 95 1.49801 95 3.34601C95 5.19401 96.5001 6.69101 98.3401 6.69101Z" fill="#9871F5" fill-opacity="0.5"/>
<path d="M98.3401 30.0621C100.19 30.0621 101.68 28.5641 101.68 26.7161C101.68 24.8691 100.19 23.3711 98.3401 23.3711C96.4901 23.3711 95 24.8691 95 26.7161C95 28.5641 96.4901 30.0621 98.3401 30.0621Z" fill="#9871F5" fill-opacity="0.5"/>
<path d="M98.3401 53.4151C100.19 53.4151 101.68 51.9171 101.68 50.0691C101.68 48.2211 100.19 46.7241 98.3401 46.7241C96.4901 46.7241 95 48.2211 95 50.0691C95 51.9171 96.4901 53.4151 98.3401 53.4151Z" fill="#9871F5" fill-opacity="0.5"/>
<path d="M98.3401 76.786C100.19 76.786 101.68 75.288 101.68 73.44C101.68 71.592 100.19 70.094 98.3401 70.094C96.4901 70.094 95 71.592 95 73.44C95 75.288 96.4901 76.786 98.3401 76.786Z" fill="#9871F5" fill-opacity="0.5"/>
<path d="M98.3401 100.138C100.19 100.138 101.68 98.64 101.68 96.793C101.68 94.945 100.19 93.447 98.3401 93.447C96.4901 93.447 95 94.945 95 96.793C95 98.64 96.4901 100.138 98.3401 100.138Z" fill="#9871F5" fill-opacity="0.5"/>
<path d="M98.3401 123.509C100.19 123.509 101.68 122.011 101.68 120.163C101.68 118.315 100.19 116.817 98.3401 116.817C96.4901 116.817 95 118.315 95 120.163C95 122.011 96.4901 123.509 98.3401 123.509Z" fill="#9871F5" fill-opacity="0.5"/>
<path d="M98.3401 146.862C100.19 146.862 101.68 145.364 101.68 143.516C101.68 141.668 100.19 140.17 98.3401 140.17C96.4901 140.17 95 141.668 95 143.516C95 145.364 96.4901 146.862 98.3401 146.862Z" fill="#9871F5" fill-opacity="0.5"/>
<path d="M2 189L12.735 199.749" stroke="#04D361" stroke-width="3" stroke-miterlimit="10" stroke-linecap="round" stroke-linejoin="round"/>
<path d="M12.735 189L2 199.749" stroke="#04D361" stroke-width="3" stroke-miterlimit="10" stroke-linecap="round" stroke-linejoin="round"/>
<path d="M289.589 599V614.2" stroke="#04D361" stroke-width="3" stroke-miterlimit="10" stroke-linecap="round" stroke-linejoin="round"/>
<path d="M297.198 606.599H282" stroke="#04D361" stroke-width="3" stroke-miterlimit="10" stroke-linecap="round" stroke-linejoin="round"/>
<path d="M43.451 376.238C43.451 381.328 39.3268 385.476 34.2253 385.476C29.1416 385.476 25 381.346 25 376.238C25 371.147 29.1239 367 34.2253 367C39.3268 367.018 43.451 371.147 43.451 376.238Z" stroke="#04D361" stroke-width="3" stroke-miterlimit="10" stroke-linecap="round" stroke-linejoin="round"/>
<path d="M5.3412 583.691C7.1864 583.691 8.6823 582.194 8.6823 580.346C8.6823 578.498 7.1864 577 5.3412 577C3.4959 577 2 578.498 2 580.346C2 582.194 3.4959 583.691 5.3412 583.691Z" fill="#9871F5" fill-opacity="0.5"/>
<path d="M28.6621 583.691C30.5074 583.691 32.0032 582.194 32.0032 580.346C32.0032 578.498 30.5074 577 28.6621 577C26.8168 577 25.321 578.498 25.321 580.346C25.321 582.194 26.8168 583.691 28.6621 583.691Z" fill="#9871F5" fill-opacity="0.5"/>
<path d="M52.0013 583.691C53.8466 583.691 55.3425 582.194 55.3425 580.346C55.3425 578.498 53.8466 577 52.0013 577C50.1561 577 48.6602 578.498 48.6602 580.346C48.6602 582.194 50.1561 583.691 52.0013 583.691Z" fill="#9871F5" fill-opacity="0.5"/>
<path d="M75.3221 583.691C77.1674 583.691 78.6632 582.194 78.6632 580.346C78.6632 578.498 77.1674 577 75.3221 577C73.4769 577 71.981 578.498 71.981 580.346C71.981 582.194 73.4769 583.691 75.3221 583.691Z" fill="#9871F5" fill-opacity="0.5"/>
<path d="M98.6601 583.691C100.506 583.691 102.001 582.194 102.001 580.346C102.001 578.498 100.506 577 98.6601 577C96.8151 577 95.3191 578.498 95.3191 580.346C95.3191 582.194 96.8151 583.691 98.6601 583.691Z" fill="#9871F5" fill-opacity="0.5"/>
<path d="M5.3412 607.044C7.1864 607.044 8.6823 605.546 8.6823 603.699C8.6823 601.851 7.1864 600.353 5.3412 600.353C3.4959 600.353 2 601.851 2 603.699C2 605.546 3.4959 607.044 5.3412 607.044Z" fill="#9871F5" fill-opacity="0.5"/>
<path d="M28.6626 607.044C30.5079 607.044 32.0037 605.546 32.0037 603.699C32.0037 601.851 30.5079 600.353 28.6626 600.353C26.8173 600.353 25.3215 601.851 25.3215 603.699C25.3215 605.546 26.8173 607.044 28.6626 607.044Z" fill="#9871F5" fill-opacity="0.5"/>
<path d="M52.0013 607.044C53.8466 607.044 55.3425 605.546 55.3425 603.699C55.3425 601.851 53.8466 600.353 52.0013 600.353C50.1561 600.353 48.6602 601.851 48.6602 603.699C48.6602 605.546 50.1561 607.044 52.0013 607.044Z" fill="#9871F5" fill-opacity="0.5"/>
<path d="M75.3221 607.044C77.1674 607.044 78.6632 605.546 78.6632 603.699C78.6632 601.851 77.1674 600.353 75.3221 600.353C73.4769 600.353 71.981 601.851 71.981 603.699C71.981 605.546 73.4769 607.044 75.3221 607.044Z" fill="#9871F5" fill-opacity="0.5"/>
<path d="M98.6601 607.044C100.506 607.044 102.001 605.546 102.001 603.699C102.001 601.851 100.506 600.353 98.6601 600.353C96.8151 600.353 95.3191 601.851 95.3191 603.699C95.3191 605.546 96.8151 607.044 98.6601 607.044Z" fill="#9871F5" fill-opacity="0.5"/>
<path d="M5.3412 630.415C7.1864 630.415 8.6823 628.917 8.6823 627.069C8.6823 625.221 7.1864 623.724 5.3412 623.724C3.4959 623.724 2 625.221 2 627.069C2 628.917 3.4959 630.415 5.3412 630.415Z" fill="#9871F5" fill-opacity="0.5"/>
<path d="M28.6626 630.415C30.5079 630.415 32.0037 628.917 32.0037 627.069C32.0037 625.221 30.5079 623.724 28.6626 623.724C26.8173 623.724 25.3215 625.221 25.3215 627.069C25.3215 628.917 26.8173 630.415 28.6626 630.415Z" fill="#9871F5" fill-opacity="0.5"/>
<path d="M52.0013 630.415C53.8466 630.415 55.3425 628.917 55.3425 627.069C55.3425 625.221 53.8466 623.724 52.0013 623.724C50.1561 623.724 48.6602 625.221 48.6602 627.069C48.6602 628.917 50.1561 630.415 52.0013 630.415Z" fill="#9871F5" fill-opacity="0.5"/>
<path d="M75.3221 630.415C77.1674 630.415 78.6632 628.917 78.6632 627.069C78.6632 625.221 77.1674 623.724 75.3221 623.724C73.4769 623.724 71.981 625.221 71.981 627.069C71.981 628.917 73.4769 630.415 75.3221 630.415Z" fill="#9871F5" fill-opacity="0.5"/>
<path d="M98.6601 630.415C100.506 630.415 102.001 628.917 102.001 627.069C102.001 625.221 100.506 623.724 98.6601 623.724C96.8151 623.724 95.3191 625.221 95.3191 627.069C95.3191 628.917 96.8151 630.415 98.6601 630.415Z" fill="#9871F5" fill-opacity="0.5"/>
<path d="M5.3412 653.768C7.1864 653.768 8.6823 652.27 8.6823 650.422C8.6823 648.574 7.1864 647.076 5.3412 647.076C3.4959 647.076 2 648.574 2 650.422C2 652.27 3.4959 653.768 5.3412 653.768Z" fill="#9871F5" fill-opacity="0.5"/>
<path d="M28.6626 653.768C30.5079 653.768 32.0037 652.27 32.0037 650.422C32.0037 648.574 30.5079 647.076 28.6626 647.076C26.8173 647.076 25.3215 648.574 25.3215 650.422C25.3215 652.27 26.8173 653.768 28.6626 653.768Z" fill="#9871F5" fill-opacity="0.5"/>
<path d="M52.0013 653.768C53.8466 653.768 55.3425 652.27 55.3425 650.422C55.3425 648.574 53.8466 647.076 52.0013 647.076C50.1561 647.076 48.6602 648.574 48.6602 650.422C48.6602 652.27 50.1561 653.768 52.0013 653.768Z" fill="#9871F5" fill-opacity="0.5"/>
<path d="M75.3221 653.768C77.1674 653.768 78.6632 652.27 78.6632 650.422C78.6632 648.574 77.1674 647.076 75.3221 647.076C73.4769 647.076 71.981 648.574 71.981 650.422C71.981 652.27 73.4769 653.768 75.3221 653.768Z" fill="#9871F5" fill-opacity="0.5"/>
<path d="M98.6601 653.768C100.506 653.768 102.001 652.27 102.001 650.422C102.001 648.574 100.506 647.076 98.6601 647.076C96.8151 647.076 95.3191 648.574 95.3191 650.422C95.3191 652.27 96.8151 653.768 98.6601 653.768Z" fill="#9871F5" fill-opacity="0.5"/>
<path d="M623.371 100.342C623.371 102.187 624.869 103.683 626.716 103.683C628.564 103.683 630.062 102.187 630.062 100.342C630.062 98.4959 628.564 97.001 626.716 97.001C624.869 97.001 623.371 98.4959 623.371 100.342Z" fill="#9871F5" fill-opacity="0.5"/>
<path d="M623.371 123.662C623.371 125.507 624.869 127.003 626.717 127.003C628.564 127.003 630.062 125.507 630.062 123.662C630.062 121.817 628.564 120.321 626.717 120.321C624.869 120.321 623.371 121.817 623.371 123.662Z" fill="#9871F5" fill-opacity="0.5"/>
<path d="M623.371 147C623.371 148.846 624.869 150.341 626.717 150.341C628.564 150.341 630.062 148.846 630.062 147C630.062 145.155 628.564 143.659 626.717 143.659C624.869 143.659 623.371 145.155 623.371 147Z" fill="#9871F5" fill-opacity="0.5"/>
<path d="M600 100.341C600 102.187 601.498 103.682 603.346 103.682C605.194 103.682 606.691 102.187 606.691 100.341C606.691 98.496 605.194 97 603.346 97C601.498 97 600 98.496 600 100.341Z" fill="#9871F5" fill-opacity="0.5"/>
<path d="M600 123.662C600 125.507 601.498 127.003 603.346 127.003C605.194 127.003 606.691 125.507 606.691 123.662C606.691 121.817 605.194 120.321 603.346 120.321C601.498 120.321 600 121.817 600 123.662Z" fill="#9871F5" fill-opacity="0.5"/>
<path d="M600 147.002C600 148.847 601.498 150.343 603.346 150.343C605.194 150.343 606.691 148.847 606.691 147.002C606.691 145.156 605.194 143.66 603.346 143.66C601.498 143.66 600 145.156 600 147.002Z" fill="#9871F5" fill-opacity="0.5"/>
<path d="M559.451 16.2379C559.451 21.3285 555.327 25.4757 550.226 25.4757C545.142 25.4757 541 21.3463 541 16.2379C541 11.1473 545.124 7 550.226 7C555.327 7.0178 559.451 11.1473 559.451 16.2379Z" stroke="#04D361" stroke-width="3" stroke-miterlimit="10" stroke-linecap="round" stroke-linejoin="round"/>
</svg>
